<svg width="200" height="56" viewBox="0 0 200 56" fill="none" xmlns="http://www.w3.org/2000/svg">
<path d="M68.0517 40.5072C66.8197 39.4595 65.9401 38.0506 65.4129 36.2731C64.8856 34.4975 64.6211 32.6487 64.6211 30.7296C64.6211 29.1566 64.8403 27.5864 65.2815 26.0143C65.7199 24.4422 66.4087 23.1328 67.3479 22.086C68.8719 20.3394 70.8333 19.3086 73.2388 18.9859C75.6424 18.6679 77.8127 18.8537 79.7477 19.5534C81.9737 20.4257 83.6177 21.9406 84.6731 24.0933C85.6698 26.0143 86.1687 28.2561 86.1687 30.8149C86.1687 32.6797 85.9599 34.2799 85.5527 35.6193C85.1417 36.9578 84.6135 38.0928 83.9692 39.0224C82.5623 40.9434 80.7738 42.1384 78.6045 42.6027C76.6695 43.1251 74.7203 43.1702 72.756 42.7331C70.7898 42.2969 69.2233 41.555 68.0517 40.5072ZM72.2723 25.141C71.0412 26.4814 70.4828 28.4756 70.6018 31.1217C70.718 33.7715 71.2178 35.6193 72.0965 36.6652C72.448 37.1323 73.064 37.5263 73.9455 37.8433C74.8242 38.166 75.7161 38.1941 76.627 37.9324C77.5359 37.6698 78.3409 37.0151 79.0448 35.9673C79.7486 34.9187 80.1294 33.234 80.187 30.904C80.187 28.8095 79.8488 27.2365 79.1761 26.1888C78.5024 25.142 77.7258 24.4741 76.8462 24.1805C75.9665 23.8907 75.0869 23.8757 74.2073 24.1374C73.3286 24.3981 72.6823 24.7358 72.2723 25.141Z" fill="black"/>
<path d="M108.401 43.1035H102.332V29.4839V28.2617C102.332 26.8641 101.906 25.8473 101.055 25.2038C100.208 24.566 99.2556 24.2442 98.1993 24.2442C97.1439 24.2442 96.2047 24.5669 95.3846 25.2038C94.5626 25.8473 94.1535 26.8641 94.1535 28.2617V43.1035H87.9971V29.4839C87.9971 25.5265 89.0383 22.8785 91.1197 21.5381C93.2002 20.2006 95.5027 19.4727 98.0235 19.3545C99.3718 19.3545 100.693 19.5018 101.981 19.7916C103.27 20.0842 104.443 20.6658 105.499 21.5381C106.379 20.7812 107.42 20.2428 108.621 19.922C109.822 19.6031 111.069 19.4145 112.359 19.3545C114.938 19.3545 117.312 20.027 119.482 21.3646C121.652 22.705 122.736 25.4111 122.736 29.4839V43.1045H119.658C118.779 43.1045 118.06 42.8306 117.504 42.2743C116.945 41.7228 116.668 41.008 116.668 40.1357V28.2617C116.668 26.8641 116.242 25.8473 115.392 25.2038C114.541 24.566 113.589 24.2442 112.534 24.2442C111.481 24.2442 110.525 24.5669 109.678 25.2038C108.827 25.8473 108.401 26.8641 108.401 28.2617V29.4839V43.1035Z" fill="black"/>
<path d="M145.274 43.1035H139.207V29.4839V28.2617C139.207 26.8641 138.781 25.8473 137.932 25.2038C137.081 24.566 136.129 24.2442 135.074 24.2442C134.017 24.2442 133.081 24.5669 132.259 25.2038C131.435 25.8473 131.027 26.8641 131.027 28.2617V43.1035H124.871V29.4839C124.871 25.5265 125.911 22.8785 127.993 21.5381C130.072 20.2006 132.376 19.4727 134.898 19.3545C136.245 19.3545 137.564 19.5018 138.854 19.7916C140.143 20.0842 141.316 20.6658 142.373 21.5381C143.253 20.7812 144.294 20.2428 145.496 19.922C146.697 19.6031 147.943 19.4145 149.232 19.3545C151.813 19.3545 154.188 20.027 156.356 21.3646C158.524 22.705 159.611 25.4111 159.611 29.4839V43.1045H156.533C155.653 43.1045 154.935 42.8306 154.376 42.2743C153.82 41.7228 153.54 41.008 153.54 40.1357V28.2617C153.54 26.8641 153.116 25.8473 152.267 25.2038C151.417 24.566 150.464 24.2442 149.408 24.2442C148.354 24.2442 147.399 24.5669 146.551 25.2038C145.701 25.8473 145.274 26.8641 145.274 28.2617V29.4839V43.1035Z" fill="black"/>
<path d="M162.097 13.0691H165.265C166.085 13.0691 166.789 13.3617 167.375 13.9442C167.96 14.5258 168.255 15.2246 168.255 16.0369V17.8707H162.097V13.0691ZM162.097 19.8799H165.265C166.085 19.8799 166.789 20.1716 167.375 20.7522C167.96 21.3356 168.255 22.0335 168.255 22.8486V43.1036H162.097V19.8799Z" fill="#1793E7"/>
<path d="M179.962 43.1036C178.027 43.218 175.929 43.1927 173.674 43.0164C171.418 42.841 170.288 41.4171 170.288 38.7372V13.0691H173.455C174.217 13.0691 174.892 13.3617 175.479 13.9442C176.064 14.5258 176.357 15.2246 176.357 16.0369V19.9661H179.963V21.1902C179.963 22.0635 179.668 22.7773 179.083 23.3288C178.499 23.8832 177.793 24.158 176.973 24.158H176.357V37.0789C176.357 38.0703 176.942 38.5618 178.116 38.5618H179.963V43.1036H179.962Z" fill="#1793E7"/>
<path d="M44.298 40.6029C43.0461 39.5364 42.1495 38.1003 41.6119 36.2928C41.0771 34.4853 40.8079 32.6027 40.8079 30.647C40.8079 29.0487 41.0299 27.4485 41.4787 25.8483C41.9256 24.248 42.6295 22.9152 43.5838 21.8468C45.1342 20.0693 47.1353 19.0197 49.5834 18.6923C52.0295 18.3659 54.2376 18.5591 56.2085 19.2692C58.476 20.1593 60.1493 21.7014 61.2236 23.8935C62.2383 25.8483 62.7447 28.1304 62.7447 30.7361C62.7447 32.6318 62.5359 34.2639 62.1193 35.625C61.7026 36.9879 61.1641 38.1453 60.5055 39.0927C59.0751 41.0475 57.2516 42.2622 55.0454 42.7359C53.0764 43.2696 51.0904 43.3146 49.0921 42.87C47.0872 42.4254 45.4942 41.6712 44.298 40.6029ZM48.5979 24.96C47.3451 26.3219 46.7744 28.3527 46.8972 31.0476C47.0163 33.7452 47.5246 35.625 48.4194 36.6924C48.7746 37.168 49.4029 37.5675 50.2977 37.893C51.1943 38.2185 52.1042 38.2476 53.0291 37.9821C53.9541 37.7139 54.7742 37.0479 55.4923 35.9823C56.2075 34.9149 56.5958 33.1956 56.6573 30.8271C56.6573 28.6932 56.3124 27.0949 55.6274 26.0265C54.9405 24.96 54.1488 24.2799 53.2531 23.9807C52.3574 23.6871 51.4617 23.6702 50.5669 23.9366C49.6722 24.2049 49.0127 24.5463 48.5979 24.96Z" fill="black"/>
<path d="M35.2229 19.756H42.9299L45.1757 17.0321V11.4266H20.5876V13.856C20.5876 14.7903 20.907 15.5848 21.5476 16.2385C22.1872 16.8914 22.9648 17.2187 23.8785 17.2187H37.3157L35.2229 19.756Z" fill="#1793E7"/>
<path d="M48.0632 37.2158H47.8667C47.9309 37.2646 47.9905 37.3134 48.0632 37.3593V37.2158Z" fill="black"/>
<path d="M38.6366 30.6499L38.613 30.5129L23.4817 33.0662H38.9163C38.75 32.2782 38.6461 31.4734 38.6366 30.6499Z" fill="black"/>
<path d="M39.4453 25.7413L39.4784 25.6118L27.0974 28.2804H38.6715C38.8406 27.409 39.0919 26.5583 39.4453 25.7413Z" fill="black"/>
<path d="M41.4814 21.7023L31.335 24.2461H39.8346C40.2938 23.3494 40.8437 22.4967 41.4814 21.7023Z" fill="black"/>
<path d="M39.1572 37.2158H29.0608L31.8471 34.3268H22.8344L19.8677 37.4025V43.007H42.0833H43.9531C41.9142 41.5156 40.2636 39.5279 39.1572 37.2158Z" fill="#1793E7"/>
</svg>
